<?xml version="1.0" encoding="utf-8"?>
<svg xmlns="http://www.w3.org/2000/svg" viewBox="0 0 48 48" width="480" height="480">
  <rect width="36" height="36" x="6" y="6" fill="#2100c4" />
  <path fill="#ddbaff" d="M27,17h7v2h-7V17z M21.512,23.428c0.585-0.285,1.903-0.934,1.903-2.857c0-3.617-3.952-3.57-4.683-3.57H12v14h7.025C19.61,31,24,30.835,24,26.999C24,24.524,22.39,23.714,21.512,23.428z M15,19.428h2.928c0.292,0,2.195,0.104,2.195,1.572c0,1.467-1.463,1.714-1.902,1.714H15V19.428z M18.336,28.571h-3.367v-3.856h3.367c0.731,0,2.341,0.237,2.341,2C20.677,28.476,18.628,28.571,18.336,28.571z M32.438,28.395c-0.465,0.289-0.929,0.436-1.549,0.436c-2.326,0-2.789-1.961-2.789-2.83H36c0-0.869,0-1.511-0.155-2.236C35.689,23.04,34.63,20,30.734,20C25.289,20,25,24.778,25,25.5c0,0.723,0.156,1.593,0.467,2.171c0.309,0.724,0.619,1.304,1.084,1.736c0.464,0.435,1.083,0.866,1.703,1.157C29.028,30.855,29.803,31,30.578,31c1.238,0,2.324-0.288,3.253-0.868c0.931-0.579,1.55-1.448,2.014-2.606h-2.633C33.057,27.816,32.902,28.104,32.438,28.395z M30.734,22.027c1.518,0,2.168,1.592,2.322,2.314H28.1C28.1,24.198,28.471,22.027,30.734,22.027z" />
</svg>