<?xml version="1.0" encoding="utf-8"?>
<svg xmlns="http://www.w3.org/2000/svg" viewBox="0 0 24 24" width="480" height="480">
  <path d="M2.898438 24L2.898438 0L10.800781 0C13.800781 0 16.101563 0.601563 17.800781 1.699219C19.5 2.800781 20.300781 4.5 20.300781 6.601563C20.300781 7.699219 20 8.800781 19.5 9.601563C19 10.5 18.101563 11.199219 17 11.601563C18.398438 11.898438 19.5 12.5 20.199219 13.5C20.898438 14.5 21.199219 15.601563 21.199219 16.800781C21.199219 19.101563 20.398438 20.898438 18.800781 22.101563C17.199219 23.300781 15 24 12 24 Z M 8.398438 10L10.601563 10C11.898438 10 12.898438 9.800781 13.601563 9.300781C14.300781 8.800781 14.601563 8.101563 14.601563 7.199219C14.601563 6.199219 14.300781 5.398438 13.601563 5C12.898438 4.601563 12 4.300781 10.699219 4.300781L8.398438 4.300781 Z M 8.398438 13.699219L8.398438 19.699219L12 19.699219C13.199219 19.699219 14.101563 19.5 14.699219 19C15.300781 18.5 15.601563 17.800781 15.601563 16.800781C15.601563 15.800781 15.300781 15 14.800781 14.5C14.300781 14 13.398438 13.699219 12.199219 13.699219Z" fill="#00000098" />
</svg>