<?xml version="1.0" encoding="utf-8"?>
<svg xmlns="http://www.w3.org/2000/svg" viewBox="0 0 26 26" width="208" height="208">
  <path d="M16.398438 24L4.199219 24L4.699219 22.101563C5 22.101563 5.5 22 6 22C6.601563 22 6.898438 21.898438 7.199219 21.800781C7.601563 21.601563 7.898438 21.398438 8.101563 21.199219C8.300781 20.898438 8.5 20.601563 8.601563 20.199219L12.199219 6.101563C12.300781 5.699219 12.300781 5.398438 12.199219 5.199219C12.101563 4.898438 11.898438 4.699219 11.601563 4.5C11.398438 4.398438 11 4.300781 10.601563 4.199219C10.101563 4.101563 9.601563 4 9.300781 4L9.800781 2L22 2L21.5 4C21.199219 4 20.398438 4.101563 19.898438 4.101563C19.398438 4.199219 19 4.199219 18.699219 4.300781C18.300781 4.398438 17.898438 4.601563 17.699219 4.898438C17.5 5.199219 17.300781 5.5 17.300781 5.898438L13.699219 20C13.601563 20.398438 13.601563 20.699219 13.699219 21C13.800781 21.300781 14 21.5 14.300781 21.601563C14.5 21.699219 14.800781 21.800781 15.300781 21.898438C15.800781 22 16.601563 22 16.898438 22.101563Z" fill="#00000098" />
</svg>