<?xml version="1.0" encoding="utf-8"?>
<svg xmlns="http://www.w3.org/2000/svg" viewBox="0 0 24 24" width="480" height="480">
  <path d="M5.5625 0C4.136719 0 2.707031 0.542969 1.625 1.625C-0.539063 3.789063 -0.539063 7.335938 1.625 9.5L5.28125 13.15625C5.667969 13.554688 6.304688 13.558594 6.703125 13.171875C7.101563 12.785156 7.105469 12.148438 6.71875 11.75L3.03125 8.0625C1.632813 6.664063 1.632813 4.429688 3.03125 3.03125C4.429688 1.632813 6.664063 1.632813 8.0625 3.03125L12.96875 7.9375C14.367188 9.335938 14.367188 11.570313 12.96875 12.96875C12.804688 13.132813 12.621094 13.25 12.4375 13.375C11.980469 13.6875 11.859375 14.308594 12.171875 14.765625C12.484375 15.222656 13.105469 15.34375 13.5625 15.03125C13.847656 14.835938 14.125 14.625 14.375 14.375C16.539063 12.210938 16.539063 8.664063 14.375 6.5L9.5 1.625C8.417969 0.542969 6.988281 0 5.5625 0 Z M 10.78125 8.875C10.738281 8.882813 10.695313 8.894531 10.65625 8.90625C10.507813 8.9375 10.371094 9 10.25 9.09375C10.039063 9.253906 9.820313 9.429688 9.625 9.625C7.460938 11.789063 7.460938 15.335938 9.625 17.5L14.5 22.375C16.664063 24.539063 20.210938 24.539063 22.375 22.375C24.539063 20.210938 24.539063 16.664063 22.375 14.5L18.71875 10.875C18.476563 10.578125 18.089844 10.441406 17.714844 10.527344C17.34375 10.613281 17.050781 10.90625 16.964844 11.277344C16.878906 11.652344 17.015625 12.039063 17.3125 12.28125L20.96875 15.9375C22.367188 17.335938 22.367188 19.570313 20.96875 20.96875C19.570313 22.367188 17.335938 22.367188 15.9375 20.96875L11.03125 16.0625C9.632813 14.664063 9.632813 12.429688 11.03125 11.03125C11.152344 10.90625 11.300781 10.820313 11.4375 10.71875C11.839844 10.472656 12.015625 9.976563 11.855469 9.53125C11.699219 9.085938 11.25 8.8125 10.78125 8.875Z" fill="#00000098" />
</svg>