<?xml version="1.0" encoding="utf-8"?>
<svg xmlns="http://www.w3.org/2000/svg" viewBox="0 0 30 30" width="480" height="480">
  <path d="M7 4 A 1.0001 1.0001 0 1 0 7 6L7 15C7 19.17 10.409 23 15 23C19.591 23 23 19.17 23 15L23 6 A 1.0001 1.0001 0 1 0 23 4L19 4 A 1.0001 1.0001 0 1 0 19 6L19 16.822266C19 18.910266 17.478391 20.778469 15.400391 20.980469C13.015391 21.213469 11 19.338 11 17L11 6 A 1.0001 1.0001 0 1 0 11 4L7 4 z M 7 25 A 1.0001 1.0001 0 1 0 7 27L23 27 A 1.0001 1.0001 0 1 0 23 25L7 25 z" fill="#00000098" />
</svg>