<?xml version="1.0" encoding="utf-8"?>
<svg xmlns="http://www.w3.org/2000/svg" viewBox="0 0 80 80" width="480" height="480">
  <path d="M14 10 A 1.0001 1.0001 0 1 0 14 12L25.294922 12L39.417969 32.285156 A 1.0001 1.0001 0 0 0 41.058594 32.285156L55.179688 12L64.607422 12L46.310547 39.445312 A 1.0001 1.0001 0 0 0 46.310547 40.554688L64.607422 68L54.658203 68 A 1.0001 1.0001 0 1 0 54.658203 70L54.662109 70L54.71875 70.009766L54.738281 70L66.476562 70 A 1.0001 1.0001 0 0 0 67.308594 68.445312L48.345703 40L67.308594 11.554688 A 1.0001 1.0001 0 0 0 66.476562 10L54.658203 10 A 1.0001 1.0001 0 0 0 53.837891 10.427734L40.238281 29.964844L26.638672 10.427734 A 1.0001 1.0001 0 0 0 25.818359 10L14 10 z M 15.787109 12.896484C15.659453 12.920703 15.534922 12.971328 15.419922 13.048828C14.959922 13.358828 14.838437 13.979453 15.148438 14.439453C15.339438 14.729453 15.649469 14.879906 15.980469 14.878906C16.171469 14.878906 16.36025 14.828984 16.53125 14.708984C16.99125 14.408984 17.121547 13.788125 16.810547 13.328125C16.578047 12.983125 16.170078 12.823828 15.787109 12.896484 z M 18.005859 16.226562C17.878187 16.251766 17.753672 16.303109 17.638672 16.380859C17.178672 16.690859 17.059375 17.299766 17.359375 17.759766C17.560375 18.049766 17.869219 18.209937 18.199219 18.210938C18.389219 18.210938 18.58 18.161016 18.75 18.041016C19.21 17.741016 19.339297 17.110391 19.029297 16.650391C18.796047 16.305391 18.388875 16.150953 18.005859 16.226562 z M 20.226562 19.556641C20.098891 19.581844 19.974375 19.633187 19.859375 19.710938C19.399375 20.010937 19.280078 20.629844 19.580078 21.089844C19.780078 21.379844 20.089922 21.540016 20.419922 21.541016C20.609922 21.541016 20.800703 21.480094 20.970703 21.371094C21.430703 21.060094 21.56 20.440469 21.25 19.980469C21.01675 19.635469 20.609578 19.481031 20.226562 19.556641 z M 22.447266 22.882812C22.319609 22.906703 22.195078 22.954047 22.080078 23.029297C21.620078 23.339297 21.500781 23.959922 21.800781 24.419922C22.000781 24.709922 22.310625 24.869141 22.640625 24.869141C22.831625 24.869141 23.019453 24.808219 23.189453 24.699219C23.649453 24.388219 23.770703 23.768594 23.470703 23.308594C23.238203 22.963594 22.830234 22.811141 22.447266 22.882812 z M 24.667969 26.210938C24.540312 26.234687 24.415781 26.284375 24.300781 26.359375C23.840781 26.670375 23.719531 27.29 24.019531 27.75C24.209531 28.04 24.529609 28.189453 24.849609 28.189453C25.040609 28.189453 25.240156 28.138297 25.410156 28.029297C25.870156 27.718297 25.990453 27.098672 25.689453 26.638672C25.456953 26.293672 25.050937 26.139688 24.667969 26.210938 z M 26.886719 29.537109C26.759219 29.561328 26.634531 29.611953 26.519531 29.689453C26.059531 30.000453 25.930234 30.620078 26.240234 31.080078C26.430234 31.370078 26.749359 31.520531 27.068359 31.519531C27.259359 31.519531 27.460859 31.469609 27.630859 31.349609C28.090859 31.049609 28.211391 30.42875 27.900391 29.96875C27.675391 29.62375 27.269219 29.464453 26.886719 29.537109 z M 29.107422 32.867188C28.98 32.891406 28.855234 32.942031 28.740234 33.019531C28.280234 33.330531 28.149938 33.938437 28.460938 34.398438C28.649938 34.688437 28.970062 34.850609 29.289062 34.849609C29.479062 34.849609 29.669609 34.799687 29.849609 34.679688C30.309609 34.379687 30.429141 33.758828 30.119141 33.298828C29.893391 32.953828 29.489688 32.794531 29.107422 32.867188 z M 31.320312 36.195312C31.191875 36.220375 31.066172 36.272109 30.951172 36.349609C30.491172 36.649609 30.369688 37.268516 30.679688 37.728516C30.869688 38.019516 31.189719 38.179688 31.511719 38.179688C31.702719 38.179688 31.890547 38.119766 32.060547 38.009766C32.520547 37.699766 32.651797 37.079141 32.341797 36.619141C32.116797 36.274141 31.705625 36.120125 31.320312 36.195312 z M 33.314453 38.988281 A 1.0001 1.0001 0 0 0 32.5 39.445312L13.167969 68.445312 A 1.0001 1.0001 0 0 0 14 70L25.818359 70 A 1.0001 1.0001 0 0 0 26.638672 69.572266L40.238281 50.035156L42.003906 52.572266 A 1.0002005 1.0002005 0 0 0 42.335938 52.871094L42.333984 52.878906L42.945312 53.533203L43.292969 53.595703L44.09375 53.195312L44.251953 52.3125L43.8125 51.841797 A 1.0002005 1.0002005 0 0 0 43.644531 51.427734L41.146484 47.841797 A 1.0001 1.0001 0 0 0 40.40625 47.289062 A 1.0001 1.0001 0 0 0 40.306641 47.277344 A 1.0001 1.0001 0 0 0 40.304688 47.277344 A 1.0001 1.0001 0 0 0 40.207031 47.275391 A 1.0001 1.0001 0 0 0 40.138672 47.279297 A 1.0001 1.0001 0 0 0 40.136719 47.279297 A 1.0001 1.0001 0 0 0 39.328125 47.841797 A 1.0001 1.0001 0 0 0 39.326172 47.847656L25.294922 68L15.869141 68L34.166016 40.554688 A 1.0001 1.0001 0 0 0 33.314453 38.988281 z M 45.578125 54.878906L44.775391 55.28125L44.619141 56.162109L45.230469 56.816406L45.578125 56.878906L46.378906 56.476562L46.537109 55.595703L45.923828 54.941406L45.578125 54.878906 z M 47.863281 58.162109L47.060547 58.5625L46.904297 59.445312L47.515625 60.099609L47.863281 60.162109L48.664062 59.759766L48.822266 58.878906L48.208984 58.224609L47.863281 58.162109 z M 50.148438 61.445312L49.347656 61.845703L49.189453 62.728516L49.800781 63.382812L50.148438 63.445312L50.949219 63.042969L51.107422 62.162109L50.494141 61.505859L50.148438 61.445312 z M 52.433594 64.728516L51.632812 65.128906L51.474609 66.011719L52.085938 66.666016L52.433594 66.728516L53.234375 66.326172L53.392578 65.443359L52.779297 64.789062L52.433594 64.728516 z" fill="#FFFFFF" />
</svg>