<svg xmlns="http://www.w3.org/2000/svg" viewBox="0 0 50 50">
  <path d="M2.8125 6C2.335938 6.089844 1.992188 6.511719 2 7L2 43C2 43.550781 2.449219 44 3 44L47 44C47.550781 44 48 43.550781 48 43L48 7C48 6.96875 48 6.9375 48 6.90625C47.953125 6.390625 47.519531 5.996094 47 6L3 6C2.96875 6 2.9375 6 2.90625 6C2.875 6 2.84375 6 2.8125 6 Z M 4 8L46 8L46 42L4 42 Z M 36.90625 15.96875C36.863281 15.976563 36.820313 15.988281 36.78125 16L35.5 16C35.46875 16 35.4375 16 35.40625 16C34.855469 16.027344 34.425781 16.496094 34.453125 17.046875C34.480469 17.597656 34.949219 18.027344 35.5 18L36 18L36 31L35.5 31C35.46875 31 35.4375 31 35.40625 31C35.375 31 35.34375 31 35.3125 31C34.761719 31.050781 34.355469 31.542969 34.40625 32.09375C34.457031 32.644531 34.949219 33.050781 35.5 33L38.5 33C38.859375 33.003906 39.195313 32.816406 39.378906 32.503906C39.558594 32.191406 39.558594 31.808594 39.378906 31.496094C39.195313 31.183594 38.859375 30.996094 38.5 31L38 31L38 18L38.5 18C38.859375 18.003906 39.195313 17.816406 39.378906 17.503906C39.558594 17.191406 39.558594 16.808594 39.378906 16.496094C39.195313 16.183594 38.859375 15.996094 38.5 16L37.1875 16C37.097656 15.976563 37 15.964844 36.90625 15.96875 Z M 14.375 16C13.972656 16.046875 13.640625 16.332031 13.53125 16.71875L9.03125 31.34375C9.007813 31.433594 8.996094 31.53125 9 31.625L9 32C8.996094 32.359375 9.183594 32.695313 9.496094 32.878906C9.808594 33.058594 10.191406 33.058594 10.503906 32.878906C10.816406 32.695313 11.003906 32.359375 11 32L11 31.84375L11.875 29L17.125 29L18 31.84375L18 32C17.996094 32.359375 18.183594 32.695313 18.496094 32.878906C18.808594 33.058594 19.191406 33.058594 19.503906 32.878906C19.816406 32.695313 20.003906 32.359375 20 32L20 31.625C20.003906 31.53125 19.992188 31.433594 19.96875 31.34375L15.46875 16.71875C15.332031 16.242188 14.867188 15.933594 14.375 16 Z M 23.8125 16C23.335938 16.089844 22.992188 16.511719 23 17L23 25.8125C22.972656 25.945313 22.972656 26.085938 23 26.21875L23 32C22.996094 32.359375 23.183594 32.695313 23.496094 32.878906C23.808594 33.058594 24.191406 33.058594 24.503906 32.878906C24.816406 32.695313 25.003906 32.359375 25 32L25 27L28 27C30.199219 27 32 25.199219 32 23L32 20C32 17.800781 30.199219 16 28 16L24 16C23.96875 16 23.9375 16 23.90625 16C23.875 16 23.84375 16 23.8125 16 Z M 25 18L28 18C29.117188 18 30 18.882813 30 20L30 23C30 24.117188 29.117188 25 28 25L25 25 Z M 14.5 20.4375L16.5 27L12.5 27Z" fill="#FFFFFF" />
</svg>