<svg xmlns="http://www.w3.org/2000/svg" viewBox="0 0 48 48">
  <path d="M12.5 4C10.032499 4 8 6.0324991 8 8.5L8 39.5C8 41.967501 10.032499 44 12.5 44L35.5 44C37.967501 44 40 41.967501 40 39.5L40 8.5C40 6.0324991 37.967501 4 35.5 4L12.5 4 z M 12.5 7L35.5 7C36.346499 7 37 7.6535009 37 8.5L37 39.5C37 40.346499 36.346499 41 35.5 41L12.5 41C11.653501 41 11 40.346499 11 39.5L11 8.5C11 7.6535009 11.653501 7 12.5 7 z M 20.5 12C18.032499 12 16 14.032499 16 16.5L16 21C16 21.846499 15.346499 22.5 14.5 22.5 A 1.50015 1.50015 0 0 0 14.5 25.5C15.346499 25.5 16 26.153501 16 27L16 31.5C16 33.967501 18.032499 36 20.5 36 A 1.50015 1.50015 0 1 0 20.5 33C19.653501 33 19 32.346499 19 31.5L19 27C19 25.84203 18.525058 24.801263 17.794922 24C18.525058 23.198737 19 22.15797 19 21L19 16.5C19 15.653501 19.653501 15 20.5 15 A 1.50015 1.50015 0 1 0 20.5 12 z M 27.5 12 A 1.50015 1.50015 0 1 0 27.5 15C28.346499 15 29 15.653501 29 16.5L29 21C29 22.15797 29.474942 23.198737 30.205078 24C29.474942 24.801263 29 25.84203 29 27L29 31.5C29 32.346499 28.346499 33 27.5 33 A 1.50015 1.50015 0 1 0 27.5 36C29.967501 36 32 33.967501 32 31.5L32 27C32 26.153501 32.653501 25.5 33.5 25.5 A 1.50015 1.50015 0 0 0 33.5 22.5C32.653501 22.5 32 21.846499 32 21L32 16.5C32 14.032499 29.967501 12 27.5 12 z M 24 19C23.171 19 22.5 19.671 22.5 20.5C22.5 21.329 23.171 22 24 22C24.829 22 25.5 21.329 25.5 20.5C25.5 19.671 24.829 19 24 19 z M 23.5 25 A 1.50015 1.50015 0 0 0 22.5 27.634766L22.5 28.5 A 1.50015 1.50015 0 1 0 25.5 28.5L25.5 27C25.5 26.25 24.902693 25.462089 24.419922 25.220703C23.937151 24.979318 23.5 25 23.5 25 z" fill="#FFFFFF" />
</svg>