<?xml version="1.0" encoding="utf-8"?>
<svg xmlns="http://www.w3.org/2000/svg" viewBox="0 0 26 26" width="18" height="18">
  <path d="M13.03125 1.15625C12.957031 1.160156 12.882813 1.167969 12.8125 1.1875C12.496094 1.25 12.230469 1.457031 12.09375 1.75L8.84375 8.375L1.46875 9.46875C1.105469 9.535156 0.804688 9.796875 0.695313 10.152344C0.582031 10.507813 0.675781 10.894531 0.9375 11.15625L6.21875 16.34375L5 23.65625C4.9375 24.027344 5.085938 24.40625 5.390625 24.632813C5.695313 24.855469 6.101563 24.890625 6.4375 24.71875L13 21.25L19.5625 24.71875C19.898438 24.890625 20.304688 24.855469 20.609375 24.632813C20.914063 24.40625 21.0625 24.027344 21 23.65625L19.78125 16.34375L25.0625 11.15625C25.324219 10.894531 25.417969 10.507813 25.304688 10.152344C25.195313 9.796875 24.894531 9.535156 24.53125 9.46875L17.15625 8.375L13.90625 1.75C13.75 1.402344 13.414063 1.171875 13.03125 1.15625 Z M 13 4.46875L15.625 9.75C15.773438 10.039063 16.054688 10.238281 16.375 10.28125L22.21875 11.15625L18 15.28125C17.757813 15.503906 17.640625 15.832031 17.6875 16.15625L18.6875 22L13.46875 19.25C13.175781 19.09375 12.824219 19.09375 12.53125 19.25L7.3125 22L8.3125 16.15625C8.359375 15.832031 8.242188 15.503906 8 15.28125L3.78125 11.15625L9.625 10.28125C9.945313 10.238281 10.226563 10.039063 10.375 9.75Z" fill="#f9f14d" />
</svg>